<svg id="Layer_1" data-name="Layer 1" xmlns="http://www.w3.org/2000/svg" viewBox="0 0 506.68 123.48"><defs><style>.cls-1{fill:#f0eeee;}.cls-2{fill:#d5d2d1;}.cls-3{fill:#f6acc7;}.cls-4{fill:#7cc17b;}.cls-5{fill:#259fda;stroke:#259fda;stroke-miterlimit:10;stroke-width:3px;}</style></defs><title>xmovement</title><path class="cls-1" d="M296.51,256.36l0,.23C296.52,256.52,296.52,256.44,296.51,256.36Z" transform="translate(-166.59 -244.26)"/><path class="cls-2" d="M208,310.46a18.59,18.59,0,0,1-24.39-1.38c-5.25-5.18-7.21-11.51-5.07-18.75a18.82,18.82,0,0,1,31.63-7.81c1.74,1.74,3.38,3.59,5.13,5.31a5.77,5.77,0,0,0,8.08-.08,3.54,3.54,0,0,0,.6-.73,5.67,5.67,0,0,1-.9-.93A93.62,93.62,0,0,0,210.9,273a3.26,3.26,0,0,1-.72-4.35,28.63,28.63,0,0,0-10.1-2.91,29.35,29.35,0,0,0-19.1,4.1,30.36,30.36,0,0,0-11.32,12.33,29.51,29.51,0,0,0-3.06,14,28.84,28.84,0,0,0,3,12.52,30.12,30.12,0,0,0,18.86,15.78c.68.21.9.47.89,1.16,0,3.29-.05,6.57,0,9.86,0,.93-.28,1.19-1.19,1.18-4.07-.05-8.14,0-12.2,0a6,6,0,0,0-5.46,7.44,6.13,6.13,0,0,0,6.08,4.62c3.86,0,7.72,0,11.58,0,.93,0,1.2.27,1.19,1.19,0,3.73-.06,7.47,0,11.21a9.37,9.37,0,0,0,.51,2.87c.77,2.24,3.72,4.06,5.83,3.7,3.88-.65,5.71-2.85,5.71-6.86,0-3.53,0-7.06,0-10.59,0-1.16.26-1.56,1.48-1.53,3.61.08,7.23.05,10.84,0a9.91,9.91,0,0,0,2.64-.43,6,6,0,0,0-1.77-11.62H201.48V325.18c7.15-1.22,12.85-4.79,17.85-9.91,1.88-1.93,3.77-3.84,5.66-5.76.12-5.42.31-10.84.46-16.26q-7.62,7.63-15.24,15.25A22.8,22.8,0,0,1,208,310.46Z" transform="translate(-166.59 -244.26)"/><path class="cls-2" d="M317.52,250.83a6.26,6.26,0,0,0-6.63-6.56q-12.08,0-24.15,0a6.47,6.47,0,0,0-5.37,2.48,5.37,5.37,0,0,0-.87,5.86,5.59,5.59,0,0,0,5.17,3.72c3.61.08,7.23,0,10.84,0l0,.23a.8.8,0,0,1-.13.22q-6.66,6.66-13.31,13.34c-.57.58-1,.35-1.47,0a26.47,26.47,0,0,0-8.64-3.7A31.24,31.24,0,0,0,260.8,266a27,27,0,0,0-15.62,7.64c-4,3.92-7.92,7.87-11.87,11.81-.06,5.39-.24,10.77-.41,16.15q8.65-8.64,17.32-17.26c1-1,2.07-2,3.15-2.92A18.77,18.77,0,0,1,283,288.53a19.29,19.29,0,0,1,1.21,8.5,17.18,17.18,0,0,1-4.66,11.07A18.35,18.35,0,0,1,265,314.28a16.38,16.38,0,0,1-10.25-3.51c-2.73-2.21-5.18-4.77-7.74-7.19-1.48-1.4-4.59-2-6.32-1.06-3.91,2.16-4.39,6.32-1.5,9.24,1.5,1.51,3.14,2.89,4.61,4.42a30.87,30.87,0,0,0,11.71,7.67,29,29,0,0,0,17.34.84,29.53,29.53,0,0,0,15.1-9.12,30.14,30.14,0,0,0,3.56-35.16,1.38,1.38,0,0,1,.26-2c4.18-4.12,8.32-8.28,12.48-12.43.27-.27.58-.49,1.12-1,0,.83,0,1.3,0,1.78.08,3.32,0,6.65.27,9.95s3.12,5.28,6.68,5a5.89,5.89,0,0,0,5.16-5.75C317.42,267.58,317.37,259.2,317.52,250.83Z" transform="translate(-166.59 -244.26)"/><path class="cls-3" d="M200.33,279.85c18.3,13.77,30.14,35.08,51.81,44.47,4.21,1.82,9.12,1.24,11.63-3.05,2.1-3.59,1.19-9.8-3-11.63-21.2-9.18-33.74-30.87-51.82-44.47-3.67-2.77-9.5-.59-11.63,3.05-2.54,4.35-.63,8.86,3.05,11.63Z" transform="translate(-166.59 -244.26)"/><path class="cls-4" d="M203.21,318.49c7.92-2.27,13.82-8.71,19.5-14.67a354.85,354.85,0,0,1,33.73-31.13" transform="translate(-166.59 -244.26)"/><path class="cls-3" d="M205.47,326.69c11.73-3.8,19.34-13,27.72-21.48a365.52,365.52,0,0,1,29.26-26.51c3.56-2.9,3-9,0-12-3.53-3.52-8.45-2.91-12,0Q236.53,278,223.77,290.59c-6.71,6.66-13.47,16.68-22.82,19.7-10.36,3.36-5.93,19.78,4.52,16.4Z" transform="translate(-166.59 -244.26)"/><path class="cls-5" d="M334.05,313.53h-6.47c0-.3.06-2.21.1-5.74s.06-6.84.06-10q0-1.84,0-6t-.06-6.29q-.12-4.92-2-6.8t-5.63-1.89a16.1,16.1,0,0,0-5.35,1.12,39.76,39.76,0,0,0-7,3.47c0,.14,0,.41,0,.82s0,.94,0,1.59q0,3.31,0,6.74c0,2.27,0,4.45,0,6.52,0,4.53,0,8.33.1,11.42s.1,4.76.1,5h-6.47c0-.3,0-1.95.08-5s.08-6.55.08-10.65c0-1.37,0-3.43,0-6.21s0-4.81-.06-6.12a22.17,22.17,0,0,0-.33-3.44,7.1,7.1,0,0,0-1.06-2.79,5.41,5.41,0,0,0-2.21-1.9,9.2,9.2,0,0,0-3.85-.64,13.85,13.85,0,0,0-5.37,1.34,55.29,55.29,0,0,0-7.05,3.86c0,.47,0,2.21,0,5.22s0,5.48,0,7.39c0,3.24,0,7.14.1,11.68s.11,6.95.11,7.22H275.3c0-.22,0-1.81.08-4.77s.09-7.88.09-14.73q0-3.36,0-9.06t-.15-12.9h6.39l0,4.71,0,0a42.43,42.43,0,0,1,6.91-3.89A18,18,0,0,1,296,271a12.4,12.4,0,0,1,6.7,1.68,9.64,9.64,0,0,1,3.83,4.26h.08a53.15,53.15,0,0,1,8.67-4.42A19.44,19.44,0,0,1,322,271c3.76,0,6.71,1.1,8.82,3.3s3.18,5.17,3.18,8.91q0,4.35-.06,7.31c0,2-.06,4.08-.06,6.29q0,6.88.1,11.64C334,311.62,334.05,313.31,334.05,313.53Z" transform="translate(-166.59 -244.26)"/><path class="cls-5" d="M385.22,292.8a24.74,24.74,0,0,1-1.7,9.09,20.47,20.47,0,0,1-4.9,7.42,19.11,19.11,0,0,1-6,3.93,19.58,19.58,0,0,1-7.47,1.35,20.23,20.23,0,0,1-7.38-1.33,18.36,18.36,0,0,1-6.14-3.91,20.18,20.18,0,0,1-4.82-7.37,25.49,25.49,0,0,1-1.7-9.26,25,25,0,0,1,1.46-8.67,20.24,20.24,0,0,1,4.52-7.11,18.89,18.89,0,0,1,6.39-4.4,19.76,19.76,0,0,1,7.71-1.54,20.3,20.3,0,0,1,7.72,1.42,17.59,17.59,0,0,1,6.16,4.24,21.08,21.08,0,0,1,4.63,7.27A25.06,25.06,0,0,1,385.22,292.8Zm-6.55.29a23.05,23.05,0,0,0-1.25-7.5,15.22,15.22,0,0,0-3.88-6.15,11,11,0,0,0-3.79-2.39,12.63,12.63,0,0,0-4.56-.84,12.35,12.35,0,0,0-4.92.9,12.07,12.07,0,0,0-3.93,2.83,15.29,15.29,0,0,0-3.42,5.65,20.55,20.55,0,0,0-1.25,7.13,22.34,22.34,0,0,0,1.27,7.68,14.77,14.77,0,0,0,4.09,6,11.09,11.09,0,0,0,3.69,2.19,13.3,13.3,0,0,0,9.24-.14,11.4,11.4,0,0,0,3.91-2.62,15.85,15.85,0,0,0,3.57-5.74A20.33,20.33,0,0,0,378.67,293.09Z" transform="translate(-166.59 -244.26)"/><path class="cls-5" d="M431.43,273.65q-5.37,12.17-11.37,25.8l-6.2,14.08h-4.8q-.19-.5-6-13.32l-11.76-26.15,6-2.73,14.4,34.13h.08l14-34Z" transform="translate(-166.59 -244.26)"/><path class="cls-5" d="M473.18,291.28H443.56a18.1,18.1,0,0,0,1.84,8,15,15,0,0,0,5.53,6,18.41,18.41,0,0,0,5.41,2.28,30.72,30.72,0,0,0,7.29.75c1.56,0,3,0,4.28-.12l2.4-.16-.74,5.45-2.17.14c-1.23.07-2.68.1-4.34.1a34.39,34.39,0,0,1-11.41-1.7,21.65,21.65,0,0,1-8-4.69,21.27,21.27,0,0,1-4.53-6.39,19.75,19.75,0,0,1-1.86-8.64,24.14,24.14,0,0,1,1.39-8.44,22.76,22.76,0,0,1,4.18-7,16.07,16.07,0,0,1,6-4.3A18.93,18.93,0,0,1,456.3,271a18.67,18.67,0,0,1,6.76,1.15,13.8,13.8,0,0,1,5.12,3.48,17.56,17.56,0,0,1,3.69,6.46A30.39,30.39,0,0,1,473.18,291.28Zm-6.35-4.59a13.56,13.56,0,0,0-3.46-8,9.84,9.84,0,0,0-7.4-2.89,10.64,10.64,0,0,0-7.66,2.93,15.58,15.58,0,0,0-4.26,7.92Z" transform="translate(-166.59 -244.26)"/><path class="cls-5" d="M542.74,313.53h-6.47c0-.3.06-2.21.1-5.74s.06-6.84.06-10c0-1.23,0-3.24,0-6s0-4.9-.06-6.29q-.12-4.92-1.94-6.8t-5.64-1.89a16,16,0,0,0-5.34,1.12,39.81,39.81,0,0,0-7,3.47c0,.14,0,.41,0,.82s0,.94,0,1.59q0,3.31,0,6.74c0,2.27,0,4.45,0,6.52,0,4.53,0,8.33.1,11.42s.1,4.76.1,5h-6.47c0-.3,0-1.95.08-5s.09-6.55.09-10.65c0-1.37,0-3.43,0-6.21s0-4.81-.07-6.12a22.19,22.19,0,0,0-.32-3.44,7.26,7.26,0,0,0-1.07-2.79,5.41,5.41,0,0,0-2.21-1.9,9.2,9.2,0,0,0-3.85-.64,13.85,13.85,0,0,0-5.37,1.34,55.29,55.29,0,0,0-7.05,3.86c0,.47,0,2.21,0,5.22s0,5.48,0,7.39c0,3.24,0,7.14.11,11.68s.1,6.95.1,7.22H484q0-.33.09-4.77t.08-14.73q0-3.36,0-9.06c0-3.79-.06-8.09-.15-12.9h6.39l0,4.71,0,0a42.86,42.86,0,0,1,6.91-3.89,18,18,0,0,1,7.35-1.93,12.4,12.4,0,0,1,6.7,1.68,9.58,9.58,0,0,1,3.83,4.26h.08a53.15,53.15,0,0,1,8.67-4.42,19.44,19.44,0,0,1,6.74-1.52q5.65,0,8.83,3.3a12.34,12.34,0,0,1,3.17,8.91q0,4.35-.06,7.31c0,2-.06,4.08-.06,6.29q0,6.88.1,11.64C542.71,311.62,542.74,313.31,542.74,313.53Z" transform="translate(-166.59 -244.26)"/><path class="cls-5" d="M589.45,291.28H559.83a18,18,0,0,0,1.84,8,14.9,14.9,0,0,0,5.53,6,18.29,18.29,0,0,0,5.41,2.28,30.72,30.72,0,0,0,7.29.75c1.56,0,3,0,4.28-.12l2.4-.16-.74,5.45-2.17.14c-1.23.07-2.68.1-4.34.1a34.35,34.35,0,0,1-11.41-1.7,21.56,21.56,0,0,1-8-4.69,21.1,21.1,0,0,1-4.53-6.39,19.75,19.75,0,0,1-1.86-8.64,24.14,24.14,0,0,1,1.39-8.44,22.76,22.76,0,0,1,4.18-7,16.07,16.07,0,0,1,6-4.3,18.93,18.93,0,0,1,7.44-1.52,18.67,18.67,0,0,1,6.76,1.15,13.88,13.88,0,0,1,5.12,3.48,17.56,17.56,0,0,1,3.69,6.46A30.39,30.39,0,0,1,589.45,291.28Zm-6.35-4.59a13.57,13.57,0,0,0-3.47-8,9.81,9.81,0,0,0-7.39-2.89,10.64,10.64,0,0,0-7.66,2.93,15.58,15.58,0,0,0-4.26,7.92Z" transform="translate(-166.59 -244.26)"/><path class="cls-5" d="M634.27,313.53h-6.48c0-.77.06-3.29.1-7.58S628,299,628,298c0-1.42,0-3.51,0-6.29s0-4.8-.07-6.08q-.12-4.71-1.8-6.76t-5.82-2.05a17.24,17.24,0,0,0-6.18,1.48,49.78,49.78,0,0,0-7.46,3.77c0,.3,0,1.92,0,4.87s0,5.64,0,8.07q0,4.75.1,11.47t.1,7h-6.47c0-.19,0-1.87.08-5s.09-7.85.09-14.07q0-4.31,0-10.08t-.15-12.29h6.39l0,4.71,0,.08a57.87,57.87,0,0,1,9.57-4.57,20.79,20.79,0,0,1,6.37-1.29,11.16,11.16,0,0,1,8.42,3.3q3.16,3.3,3.17,9,0,5.16-.06,8.91t-.06,6.08q0,3.72.1,9.32C634.23,311.38,634.27,313.34,634.27,313.53Z" transform="translate(-166.59 -244.26)"/><path class="cls-5" d="M671.55,308.45l-.74,5.2c-.19,0-.66.06-1.41.08s-1.4,0-1.95,0q-8.4,0-12.7-3.5t-4.3-10.75q0-4.54.06-9.75t.06-12.91h-6.88v-4.79h7.25v-9.71h5.94v9.71h14.67v4.79H656.88c0,.58,0,2.28-.06,5.12s-.06,4.95-.06,6.31v10.16q0,5.32,2.86,7.68t8.85,2.36l1.77,0Z" transform="translate(-166.59 -244.26)"/></svg>